# xmcd
#
# Track frame offsets: 
#        150
#        18825
#        33225
#        49800
#        64350
#        80250
#        93375
#        110550
#        127275
#        141675
#        156000
#        174150
#        188025
#        203625
#        222525
#        236325
#        249075
#        264600
#
# Disc length: 3688 seconds
#
# Revision: 4
# Processed by: cddbd v1.5.1PL2 Copyright (c) Steve Scherf et al.
# Submitted via: ExactAudioCopy v0.95b3
#
DISCID=fc0e6612
DTITLE=Gregory Isaacs - Once Ago
DYEAR=1990
DGENRE=Reggae
TTITLE0=Tribute To Wa De
TTITLE1=Gi Me
TTITLE2=Poor And Clean
TTITLE3=Poor Natty
TTITLE4=I Am Sorry
TTITLE5=A Few Words
TTITLE6=Protection
TTITLE7=Hard Times
TTITLE8=Hush Darling
TTITLE9=Confirm Reservation
TTITLE10=Front Door
TTITLE11=Permanent Lover
TTITLE12=My Only Lover
TTITLE13=If I Don't Have You
TTITLE14=Substitute
TTITLE15=Poor Millionaire
TTITLE16=The Fugitive
TTITLE17=Once Ago
EXTD=COMPIL 2 ALBUMS :\n1 A 8 LONELY LOVER\n9 A 18 MORE GREGORY\nROOTS
EXTD=RADICS OU SLY and ROBBIE
EXTT0=
EXTT1=
EXTT2=
EXTT3=
EXTT4=
EXTT5=
EXTT6=
EXTT7=
EXTT8=
EXTT9=
EXTT10=
EXTT11=
EXTT12=
EXTT13=
EXTT14=
EXTT15=
EXTT16=
EXTT17=
PLAYORDER=
